<svg viewBox="0 0 736 416"  version="1.1" xmlns="http://www.w3.org/2000/svg">
<g id="qubit_lines">
<path id="qubit_line:0" d="M64,64 L704,64 " stroke="black"/>
<text dominant-baseline="central" text-anchor="end" font-family="monospace" font-size="12" x="64" y="64">q0</text>
<path id="qubit_line:1" d="M64,128 L704,128 " stroke="black"/>
<text dominant-baseline="central" text-anchor="end" font-family="monospace" font-size="12" x="64" y="128">q1</text>
<path id="qubit_line:2" d="M64,192 L704,192 " stroke="black"/>
<text dominant-baseline="central" text-anchor="end" font-family="monospace" font-size="12" x="64" y="192">q2</text>
<path id="qubit_line:3" d="M64,256 L704,256 " stroke="black"/>
<text dominant-baseline="central" text-anchor="end" font-family="monospace" font-size="12" x="64" y="256">q3</text>
<path id="qubit_line:4" d="M64,320 L704,320 " stroke="black"/>
<text dominant-baseline="central" text-anchor="end" font-family="monospace" font-size="12" x="64" y="320">q4</text>
</g>
<rect x="80" y="48" width="224" height="32" stroke="black" fill="white"/>
<text dominant-baseline="central" text-anchor="middle" font-family="monospace" font-size="16" x="192" y="64">COORDS(3,3)</text>
<rect x="80" y="112" width="224" height="32" stroke="black" fill="white"/>
<text dominant-baseline="central" text-anchor="middle" font-family="monospace" font-size="16" x="192" y="128">COORDS(3,1)</text>
<rect x="80" y="176" width="224" height="32" stroke="black" fill="white"/>
<text dominant-baseline="central" text-anchor="middle" font-family="monospace" font-size="16" x="192" y="192">COORDS(1,3)</text>
<rect x="80" y="240" width="224" height="32" stroke="black" fill="white"/>
<text dominant-baseline="central" text-anchor="middle" font-family="monospace" font-size="16" x="192" y="256">COORDS(1,1)</text>
<rect x="80" y="304" width="224" height="32" stroke="black" fill="white"/>
<text dominant-baseline="central" text-anchor="middle" font-family="monospace" font-size="16" x="192" y="320">COORDS(2,2)</text>
<rect x="336" y="304" width="32" height="32" stroke="black" fill="black"/>
<text dominant-baseline="central" text-anchor="middle" font-family="monospace" font-size="30" x="352" y="320" fill="white">R</text>
<path d="M68,40 L68,32 L380,32 L380,40 " stroke="black" fill="none"/>
<path d="M68,376 L68,384 L380,384 L380,376 " stroke="black" fill="none"/>
<path d="M416,64 L416,320 " stroke="black"/>
<circle cx="416" cy="64" r="12" stroke="none" fill="black"/>
<circle cx="416" cy="320" r="12" stroke="black" fill="white"/>
<path d="M404,320 L428,320 M416,308 L416,332 " stroke="black"/>
<path d="M480,128 L480,320 " stroke="black"/>
<circle cx="480" cy="128" r="12" stroke="none" fill="black"/>
<circle cx="480" cy="320" r="12" stroke="black" fill="white"/>
<path d="M468,320 L492,320 M480,308 L480,332 " stroke="black"/>
<path d="M544,192 L544,320 " stroke="black"/>
<circle cx="544" cy="192" r="12" stroke="none" fill="black"/>
<circle cx="544" cy="320" r="12" stroke="black" fill="white"/>
<path d="M532,320 L556,320 M544,308 L544,332 " stroke="black"/>
<path d="M608,256 L608,320 " stroke="black"/>
<circle cx="608" cy="256" r="12" stroke="none" fill="black"/>
<circle cx="608" cy="320" r="12" stroke="black" fill="white"/>
<path d="M596,320 L620,320 M608,308 L608,332 " stroke="black"/>
<rect x="656" y="304" width="32" height="32" stroke="black" fill="black"/>
<text dominant-baseline="central" text-anchor="middle" font-family="monospace" font-size="30" x="672" y="320" fill="white">M</text>
<text text-anchor="middle" font-family="monospace" font-size="8" x="672" y="300">rec[0]</text>
</svg>